The hanging of honorable Indian-fighter Sam Phoenix in a small western town is cut short by the unexpected invasion of uranium based insectoid creatures, forcing Sam and a small band of survivors to take refuge in a church. They will need more than a prayer and a pistol to survive, as a Wild West landscape is inundated by a killer force of alien pioneers.
 
http://www.imdb.com/title/tt1388432/

Subtitles (srt) : Dutch.

Covers included.

Het begin van de 20ste eeuw. Een klein dorpje wordt opgeschrikt door een groep gigantische buitenaardse insecten, die op zoek zijn naar brandstof voor hun ruimteschip. Ze zijn echter niet te stoppen en vermoorden iedereen die op hun pad komt. Een tot de dood veroordeelde man besluit het dorpje te redden. Hij heeft immers toch niets te verliezen.
 
http://www.moviemeter.nl/film/61492

Ondertitels (srt) : Nederlands.

Hoesjes bijgevoegd.

General
Complete name                    : High Plains Invaders-AC3-XviD-DVDRip[Eng]2009 2Lions-Team\High Plains Invaders-AC3-XviD-DVDRip[Eng]2009 2Lions-Team.avi
Format                           : AVI
Format/Info                      : Audio Video Interleave
File size                        : 1.36 GiB
Duration                         : 1h 27mn
Overall bit rate                 : 2 233 Kbps
Writing application              : VirtualDubMod 1.5.4.1 (build 2178/release)
Writing library                  : VirtualDubMod build 2178/release

Video
ID                               : 0
Format                           : MPEG-4 Visual
Format profile                   : Simple@L3
Format settings, BVOP            : No
Format settings, QPel            : No
Format settings, GMC             : No warppoints
Format settings, Matrix          : Default (H.263)
Codec ID                         : XVID
Codec ID/Hint                    : XviD
Duration                         : 1h 27mn
Bit rate                         : 1 776 Kbps
Width                            : 720 pixels
Height                           : 400 pixels
Display aspect ratio             : 16:9
Frame rate                       : 23.976 fps
Resolution                       : 8 bits
Colorimetry                      : 4:2:0
Scan type                        : Progressive
Bits/(Pixel*Frame)               : 0.257
Stream size                      : 1.08 GiB (80%)
Writing library                  : XviD 1.1.2 (UTC 2006-11-01)

Audio
ID                               : 1
Format                           : AC-3
Format/Info                      : Audio Coding 3
Codec ID                         : 2000
Duration                         : 1h 27mn
Bit rate mode                    : Constant
Bit rate                         : 448 Kbps
Channel(s)                       : 6 channels
Channel positions                : Front: L C R, Surround: L R, LFE
Sampling rate                    : 48.0 KHz
Stream size                      : 280 MiB (20%)
Alignment                        : Split accross interleaves
Interleave, duration             : 42 ms (1.00 video frame)
Interleave, preload duration     : 500 ms

Thanks to blowan for the source.

Brought to you by Gollum

DON T HIT AND RUN Niet gelijk afhaken als de FILM binnen is blijf seeden. 

Don`t quit after you finished the download, but keep seeding

There are fake torrents from uploaders who use our team name.
Those are not ours, or members from our team.
We 2Lions-Team are not responsible for the fake posts on our name

Wij 2Lions-Team zijn niet verantwoordelijk voor die zieke FAKE posten die op onze naam worden gedaan

Please check our site !!!

to the fakers , get a life !!!